# xmcd
#
# Track frame offsets: 
#        150
#        13159
#        23957
#        35690
#        48502
#        62017
#        71675
#        83517
#        94170
#        103967
#        114077
#        123954
#
# Disc length: 1785 seconds
#
# Revision: 0
# Processed by: cddbd v1.5.2PL0 Copyright (c) Steve Scherf et al.
# Submitted via: ExactAudioCopy v0.99pb4
#
DISCID=9b06f70c
DTITLE=B. B. King - Mr. Blues
DYEAR=2006
DGENRE=Blues
TTITLE0=Young Dreamers
TTITLE1=By Myself
TTITLE2=Chains Of Love
TTITLE3=A Mother's Love
TTITLE4=Blues At Midnight
TTITLE5=Sneakin' Around
TTITLE6=On My Word Of Honor
TTITLE7=Tomorrow Night
TTITLE8=My Baby's Comin' Home
TTITLE9=Guess Who
TTITLE10=You Ask Me
TTITLE11=I'm Gonna Sit In 'Til You Give In
EXTD=
EXTT0=
EXTT1=
EXTT2=
EXTT3=
EXTT4=
EXTT5=
EXTT6=
EXTT7=
EXTT8=
EXTT9=
EXTT10=
EXTT11=
PLAYORDER=
